<?xml version="1.0" encoding="utf-8"?>
<svg xmlns="http://www.w3.org/2000/svg" viewBox="0 0 500 500">
  <path fill="#384658" d="M 44.274 375.099 C 43.968 373.559 43.501 129.622 44.4 123.132 C 46.025 122.037 214.633 21.39 250.242 0.126 C 254.507 -2.422 405.439 94.829 472.071 129.438 C 472.324 196.558 475.262 373.612 471.615 375.765 C 407.948 413.381 338.512 453.113 274.409 490.334 C 273.887 455.221 274.12 420.637 273.682 386.062 C 273.594 378.961 276.06 375.078 281.895 371.714 C 305.782 357.938 329.494 343.857 353.244 329.839 C 362.209 324.546 371.102 319.131 378.974 314.405 C 373.184 294.35 367.262 275.79 362.549 256.927 C 358.364 240.179 355.795 223.092 358.667 205.68 C 359.753 199.101 360.457 198.66 366.118 201.761 C 369.143 203.418 372.329 204.788 375.977 206.545 L 375.977 125.23 C 373.198 126.894 371.127 127.729 369.574 129.138 C 362.957 135.135 355.902 140.788 350.081 147.499 C 329.681 171.004 321.468 198.538 323.48 229.563 C 324.854 250.763 329.403 271.205 335.834 291.308 C 337.476 296.438 336.233 299.356 331.423 302.064 C 317.364 309.981 303.62 318.458 289.722 326.668 C 285.03 329.438 280.251 332.063 274.412 335.383 L 274.412 142.509 L 301.515 149.366 L 256.498 67.008 L 212.841 147.039 L 214.397 148.638 L 238.428 142.98 L 238.428 334.998 C 234.115 332.708 230.735 331.061 227.498 329.17 C 213.562 321.023 199.754 312.653 185.732 304.659 C 175.175 298.641 175.71 298.567 178.382 286.915 C 182.924 267.111 188.237 247.182 189.718 227.048 C 192.29 192.076 179.286 162.032 154.091 137.581 C 149.3 132.931 143.485 129.342 136.948 124.352 L 136.948 206.746 C 140.941 204.739 144.249 203.447 147.148 201.534 C 151.587 198.609 154.073 199.597 154.07 204.811 C 154.061 216.621 154.461 228.504 153.3 240.218 C 151.011 263.35 143.863 285.339 135.236 306.811 C 132.989 312.405 134.602 315.345 139.518 318.189 C 171.141 336.485 202.624 355.023 234.209 373.383 C 237.983 375.579 239.171 378.44 239.153 382.729 C 238.993 418.877 239.044 455.029 239.03 491.181" style="stroke-width: 1;"/>
  <path fill="#e24543" d="M 238.907 491.181 C 238.668 454.912 238.624 418.643 238.779 382.373 C 238.798 378.084 237.611 375.223 233.836 373.027 C 202.251 354.667 170.768 336.129 139.144 317.834 C 134.228 314.989 132.616 312.048 134.862 306.456 C 143.491 284.984 150.636 262.994 152.928 239.862 C 154.089 228.147 153.687 216.263 153.696 204.455 C 153.7 199.242 151.213 198.253 146.776 201.179 C 143.874 203.09 140.567 204.384 136.576 206.39 L 136.576 123.996 C 143.11 128.986 148.926 132.575 153.717 137.225 C 178.914 161.675 191.915 191.72 189.344 226.692 C 187.865 246.828 182.552 266.756 178.008 286.559 C 175.336 298.209 174.8 298.285 185.358 304.304 C 199.382 312.297 213.189 320.666 227.125 328.814 C 230.363 330.707 233.742 332.352 238.055 334.642 L 238.055 142.623 L 214.023 148.279 L 212.468 146.682 L 256.125 66.651 L 301.14 149.009 L 274.039 142.152 L 274.039 335.022 C 279.879 331.705 284.655 329.079 289.348 326.307 C 303.246 318.098 316.991 309.622 331.05 301.704 C 335.86 298.995 337.101 296.078 335.461 290.949 C 329.029 270.844 324.481 250.404 323.106 229.203 C 321.095 198.179 329.306 170.644 349.707 147.139 C 355.529 140.428 362.585 134.776 369.202 128.777 C 370.753 127.368 372.826 126.536 375.604 124.87 L 375.604 206.187 C 371.955 204.428 368.772 203.059 365.744 201.403 C 360.082 198.3 359.379 198.741 358.295 205.319 C 355.42 222.733 357.99 239.819 362.175 256.567 C 366.887 275.429 372.812 293.992 378.601 314.045 C 370.729 318.772 361.836 324.187 352.869 329.479 C 329.12 343.495 305.408 357.577 281.52 371.354 C 275.687 374.719 273.22 378.6 273.31 385.703 C 273.747 420.277 273.512 454.86 273.566 490.088 C 273.492 490.922 273.398 491.139 273.24 491.288 C 261.957 501.652 250.598 502.28 238.908 491.178" style="stroke-width: 1;"/>
</svg>
